:SAMPLES-PER-SECOND 30
:FULLY-SPECIFIED
:DEGREES
115
root  -41.3693 40.3907 -17.278 175.667 -11.3185 177.66
RightUpLeg  -19.9527 -26.9941 -5.74623
RightLeg  21.0965 -4.68407 -2.24672
RightFoot  2.21058 0.0514054 -0.305104
RightToes  0.000482159 0.542163 -0.142577
Spine  45.0968 2.83507 -6.04173
Spine1  7.49279 0.891704 -1.82682
HEad  -23.8899 -28.8042 21.7081
LeftShoulder1  9.40283 -15.4458 -43.149
LeftArm  -25.4605 8.95796 -15.4182
LeftForeArm  40.4785 -76.6632 -52.5748
LeftHand  -0.25398 0.0180481 5.50724
RightShoulder  6.489 11.3759 37.5784
RightArm  -12.3745 -2.44612 31.1992
RightForeArm  31.0495 77.2163 63.8483
RightHand  -0.116726 -11.5798 0.595338
LeftUpLeg  -7.35571 25.064 3.90444
LeftLeg  15.6352 10.3103 -0.812092
LeftFoot  -0.541024 0.139327 -1.43913
LeftToes  1.06247e-005 4.65855e-005 -8.18501e-006
116
root  -41.2411 40.4743 -17.3137 174.622 -7.66341 177.51
RightUpLeg  -18.3762 -26.7409 -8.49946
RightLeg  23.8268 -6.84195 -3.50563
RightFoot  1.52699 0.163851 -1.36895
RightToes  0.000482159 0.542163 -0.142577
Spine  42.8826 2.7307 -6.31741
Spine1  7.40942 0.520355 -0.776426
HEad  -24.1445 -31.8972 23.0416
LeftShoulder1  9.39283 -15.1847 -43.7393
LeftArm  -24.1579 10.4783 -15.8259
LeftForeArm  42.6221 -76.9562 -54.1495
LeftHand  -0.25398 0.0180481 5.50724
RightShoulder  6.50314 11.2383 38.0641
RightArm  -12.4463 -5.64963 30.2264
RightForeArm  35.5407 77.6469 68.4437
RightHand  -0.140755 -12.246 0.854801
LeftUpLeg  -4.53271 22.9606 5.82967
LeftLeg  14.3474 15.6803 -1.3895
LeftFoot  -0.0759496 0.16848 -1.7056
LeftToes  1.06247e-005 4.65855e-005 -8.18501e-006
117
root  -40.9988 40.51 -17.3917 173.764 -4.06236 177.328
RightUpLeg  -16.8557 -26.8349 -10.7356
RightLeg  25.37 -7.87753 -4.26979
RightFoot  0.347566 0.252069 -2.43133
RightToes  0.000482159 0.542163 -0.142577
Spine  40.7892 2.61202 -6.56876
Spine1  7.40047 0.185024 0.127977
HEad  -24.4763 -34.2651 24.3528
LeftShoulder1  9.36216 -14.9537 -44.1637
LeftArm  -22.6421 11.3342 -16.2626
LeftForeArm  43.8463 -77.0853 -54.7613
LeftHand  -0.25398 0.0180481 5.50724
RightShoulder  6.41228 10.952 38.3003
RightArm  -12.7267 -8.44097 29.4624
RightForeArm  40.4471 78.0062 73.5976
RightHand  -0.1653 -12.8988 1.07086
LeftUpLeg  -2.21908 21.0234 7.46117
LeftLeg  13.4561 20.6184 -1.77076
LeftFoot  0.186849 0.194043 -1.93432
LeftToes  1.06247e-005 4.65855e-005 -8.18501e-006
118
root  -40.6268 40.5063 -17.4996 173.095 -0.304932 176.882
RightUpLeg  -15.5391 -27.8064 -12.5527
RightLeg  25.7069 -8.717 -4.76335
RightFoot  -0.708949 0.238408 -2.60557
RightToes  0.000482159 0.542163 -0.142577
Spine  38.8485 2.59864 -7.02901
Spine1  7.4724 -0.0377561 0.714371
HEad  -24.841 -35.8051 25.4807
LeftShoulder1  9.31946 -14.8773 -44.1447
LeftArm  -20.9812 11.8657 -16.7625
LeftForeArm  44.6927 -77.1797 -55.2558
LeftHand  -0.25398 0.0180481 5.50724
RightShoulder  6.28948 10.5987 38.5321
RightArm  -13.3709 -10.7556 28.9026
RightForeArm  45.9545 78.2771 78.715
RightHand  -0.2093 -13.0811 1.66825
LeftUpLeg  -0.112135 18.893 8.79086
LeftLeg  12.6132 25.9007 -2.13239
LeftFoot  0.742637 0.274917 -2.63442
LeftToes  1.06247e-005 4.65855e-005 -8.18501e-006
119
root  -40.1497 40.4898 -17.6376 172.743 3.56487 176.259
RightUpLeg  -14.6155 -30.2283 -13.776
RightLeg  25.1464 -10.1714 -5.38144
RightFoot  -1.54586 0.226046 -2.76787
RightToes  0.000482159 0.542163 -0.142577
Spine  36.8619 2.54404 -7.63546
Spine1  7.47338 -0.326996 1.27441
HEad  -24.8804 -36.4473 25.668
LeftShoulder1  9.32052 -14.9405 -43.9905
LeftArm  -19.4713 12.5599 -17.1865
LeftForeArm  45.8171 -77.3405 -56.3293
LeftHand  -0.25398 0.0180481 5.50724
RightShoulder  6.23655 10.3643 38.8884
RightArm  -14.1577 -12.6633 28.2409
RightForeArm  51.0967 78.4407 83.4392
RightHand  -0.240399 -13.073 2.12217
LeftUpLeg  1.83767 16.886 9.79006
LeftLeg  11.5169 31.3086 -2.58597
LeftFoot  1.42635 0.431158 -3.9331
LeftToes  1.06247e-005 4.65855e-005 -8.18501e-006
120
root  -39.5818 40.4753 -17.8207 173.039 7.36996 175.917
RightUpLeg  -14.167 -33.5687 -13.769
RightLeg  23.9769 -13.1582 -6.52053
RightFoot  -2.76612 0.259717 -3.71935
RightToes  0.000482159 0.542163 -0.142577
Spine  34.3031 2.13145 -7.91663
Spine1  7.5121 -0.834566 1.92497
HEad  -24.4215 -36.2479 24.6849
LeftShoulder1  9.33905 -14.9748 -43.9965
LeftArm  -18.3045 13.4419 -17.5148
LeftForeArm  46.638 -77.4518 -57.0996
LeftHand  -0.25398 0.0180481 5.50724
RightShoulder  6.23447 10.2615 39.195
RightArm  -14.7948 -14.2072 27.5678
RightForeArm  54.9168 78.4879 87.7697
RightHand  -0.210168 -13.2552 1.62618
LeftUpLeg  3.16768 15.1598 10.7173
LeftLeg  10.3174 36.3804 -2.94615
LeftFoot  1.82685 0.590449 -5.21465
LeftToes  1.06247e-005 4.65855e-005 -8.18501e-006
121
root  -38.8988 40.4647 -18.0722 174.184 11.2126 176.196
RightUpLeg  -14.0806 -36.4848 -12.0905
RightLeg  22.1828 -17.0923 -7.7045
RightFoot  -3.89889 0.234688 -3.98647
RightToes  0.000482159 0.542163 -0.142577
Spine  30.8352 1.30235 -7.3457
Spine1  7.8784 -1.42279 2.44494
HEad  -23.7404 -35.4095 23.0691
LeftShoulder1  9.32565 -14.8905 -44.142
LeftArm  -17.3184 14.2255 -17.7647
LeftForeArm  46.1696 -77.3811 -56.5754
LeftHand  -0.25398 0.0180481 5.50724
RightShoulder  6.18327 10.1409 39.2187
RightArm  -15.2678 -15.4787 27.2454
RightForeArm  58.0059 78.4597 91.7315
RightHand  -0.155783 -13.5465 0.794564
LeftUpLeg  3.78842 14.1334 12.049
LeftLeg  9.13255 40.555 -3.06169
LeftFoot  2.42499 0.766849 -6.45831
LeftToes  1.06247e-005 4.65855e-005 -8.18501e-006
122
root  -38.0762 40.4541 -18.4086 175.856 15.3872 176.935
RightUpLeg  -14.2021 -38.7661 -9.20095
RightLeg  19.871 -18.8759 -7.58161
RightFoot  -3.62514 0.124368 -2.26131
RightToes  0.000482159 0.542163 -0.142577
Spine  26.9283 0.356315 -5.80866
Spine1  8.55028 -1.85178 2.67256
HEad  -23.1479 -34.1472 21.2434
LeftShoulder1  9.32288 -14.7918 -44.3783
LeftArm  -16.2849 14.9662 -17.7946
LeftForeArm  45.2354 -77.2775 -55.9733
LeftHand  -0.25398 0.0180481 5.50724
RightShoulder  6.06421 9.95858 38.9605
RightArm  -15.6212 -16.7513 27.2509
RightForeArm  61.8132 78.4021 95.7125
RightHand  -0.1682 -13.8476 0.89533
LeftUpLeg  4.5674 14.3388 13.992
LeftLeg  7.74413 43.7489 -3.27436
LeftFoot  3.39354 1.0914 -8.58321
LeftToes  1.06247e-005 4.65855e-005 -8.18501e-006
123
root  -37.1273 40.437 -18.8072 177.389 20.0413 177.651
RightUpLeg  -14.588 -40.8843 -6.11507
RightLeg  17.903 -16.4461 -5.80705
RightFoot  -2.1677 0.00477658 -0.224147
RightToes  0.000482159 0.542163 -0.142577
Spine  23.6265 -0.372348 -3.8245
Spine1  9.10556 -2.0436 2.61291
HEad  -22.6549 -32.479 19.3099
LeftShoulder1  9.36477 -14.7911 -44.5893
LeftArm  -15.3514 16.0852 -17.6171
LeftForeArm  45.9647 -77.4456 -57.4607
LeftHand  -0.25398 0.0180481 5.50724
RightShoulder  5.9914 9.88536 38.6766
RightArm  -15.6736 -18.1537 27.1509
RightForeArm  66.1283 78.2872 99.9788
RightHand  -0.248393 -14.3867 1.78917
LeftUpLeg  6.04355 14.9146 15.9532
LeftLeg  6.64662 46.8139 -3.43936
LeftFoot  2.95495 1.36871 -11.0938
LeftToes  1.06247e-005 4.65855e-005 -8.18501e-006
124
root  -36.1034 40.433 -19.1954 178.271 25.1564 178.06
RightUpLeg  -15.0408 -41.6835 -3.56352
RightLeg  17.1147 -11.9783 -3.59648
RightFoot  -1.29148 0.0229145 -0.358349
RightToes  0.000482159 0.542163 -0.142577
Spine  21.6829 -0.781193 -2.12189
Spine1  9.17654 -2.04501 2.33299
HEad  -22.2353 -30.2677 17.6607
LeftShoulder1  9.36344 -14.8373 -44.4649
LeftArm  -14.925 17.6804 -17.5766
LeftForeArm  49.1584 -77.8913 -61.3236
LeftHand  -0.25398 0.0180481 5.50724
RightShoulder  6.05863 10.0558 38.6119
RightArm  -15.2487 -19.2433 26.729
RightForeArm  68.9602 78.1003 103.676
RightHand  -0.307253 -15.2608 2.23554
LeftUpLeg  7.51518 14.9064 17.0167
LeftLeg  7.26203 48.6603 -2.19675
LeftFoot  -0.673963 1.04984 -11.0215
LeftToes  1.06247e-005 4.65855e-005 -8.18501e-006
125
root  -35.0623 40.4472 -19.5141 178.499 30.523 178.318
RightUpLeg  -14.9848 -39.8457 -1.55395
RightLeg  17.1636 -8.84127 -2.33884
RightFoot  -2.11742 0.168314 -2.29329
RightToes  0.000482159 0.542163 -0.142577
Spine  21.057 -0.963375 -0.907073
Spine1  8.97185 -1.9502 2.06655
HEad  -22.0849 -27.5864 16.8434
LeftShoulder1  9.25712 -14.8193 -43.9797
LeftArm  -15.0958 19.1087 -17.7854
LeftForeArm  52.7636 -78.28 -65.2492
LeftHand  -0.25398 0.0180481 5.50724
RightShoulder  6.19504 10.3168 38.7491
RightArm  -14.5802 -19.375 26.2918
RightForeArm  69.6293 77.9188 105.945
RightHand  -0.277432 -16.1125 1.67606
LeftUpLeg  7.92072 14.7767 16.9928
LeftLeg  10.4228 45.7333 1.1638
LeftFoot  -6.45005 0.355768 -7.06619
LeftToes  1.06247e-005 4.65855e-005 -8.18501e-006
126
root  -34.0504 40.4533 -19.7781 178.38 35.5201 178.618
RightUpLeg  -13.7473 -34.7659 -0.594729
RightLeg  17.4731 -9.32545 -1.99973
RightFoot  -3.85711 0.221197 -3.75742
RightToes  0.000482159 0.542163 -0.142577
Spine  21.0313 -1.15089 0.12579
Spine1  9.04207 -1.93755 2.08196
HEad  -22.2544 -24.9148 16.7128
LeftShoulder1  9.14231 -14.738 -43.6093
LeftArm  -15.4153 19.5104 -17.8188
LeftForeArm  53.479 -78.3568 -66.2891
LeftHand  -0.25398 0.0180481 5.50724
RightShoulder  6.26758 10.4262 38.9106
RightArm  -14.2099 -18.6152 26.2225
RightForeArm  69.9552 77.7651 107.616
RightHand  -0.188542 -16.7364 0.66352
LeftUpLeg  6.97409 17.9335 16.4161
LeftLeg  14.5176 33.0907 4.462
LeftFoot  -11.4357 0.0540206 -2.62602
LeftToes  1.06247e-005 4.65855e-005 -8.18501e-006
127
root  -33.077 40.4495 -20.0564 178.121 39.6574 178.942
RightUpLeg  -11.7523 -28.9403 -0.455225
RightLeg  17.7391 -11.3865 -1.63042
RightFoot  -5.31828 0.172871 -3.95393
RightToes  0.000482159 0.542163 -0.142577
Spine  21.0488 -1.51697 1.33947
Spine1  9.49545 -2.07073 2.26767
HEad  -22.2326 -22.7819 16.4321
LeftShoulder1  9.12334 -14.6734 -43.6771
LeftArm  -15.3736 18.7359 -17.3756
LeftForeArm  50.5403 -78.1097 -63.979
LeftHand  -0.25398 0.0180481 5.50724
RightShoulder  6.26185 10.388 38.9891
RightArm  -14.4215 -17.7959 26.5266
RightForeArm  71.3718 77.5729 109.88
RightHand  -0.102293 -17.42 -0.219234
LeftUpLeg  4.51742 22.5313 14.9628
LeftLeg  18.7257 14.6945 5.4747
LeftFoot  -13.5275 0.0462165 -1.64149
LeftToes  1.06247e-005 4.65855e-005 -8.18501e-006
